<svg xmlns="http://www.w3.org/2000/svg" viewBox="0 0 893.75 819.73" fill="none">
  <path fill="#000000" fill-rule="evenodd" d="M 351.52 9.24 C 340.19 9.74 329.19 10.29 317.52 11.9 C 305.86 13.51 294.02 15.74 281.52 18.92 C 269.02 22.09 254.52 26.61 242.52 30.96 C 230.52 35.31 221.19 39.19 209.52 45.02 C 197.86 50.85 183.86 58.77 172.52 65.97 C 161.19 73.17 151.62 79.98 141.52 88.19 C 131.43 96.41 121.04 106.09 111.98 115.27 C 102.93 124.45 95.01 133.27 87.2 143.27 C 79.39 153.27 71.8 164.43 65.13 175.27 C 58.46 186.1 52.66 196.77 47.18 208.27 C 41.7 219.77 36.41 232.93 32.26 244.27 C 28.1 255.6 25.41 263.93 22.25 276.27 C 19.08 288.6 15.44 305.77 13.26 318.27 C 11.08 330.77 10.06 337.1 9.18 351.27 C 8.3 365.43 7.84 388.77 8 403.27 C 8.16 417.77 8.45 424.43 10.14 438.27 C 11.83 452.1 15.14 471.93 18.14 486.27 C 21.15 500.6 24.17 511.77 28.17 524.27 C 32.17 536.77 37.11 549.6 42.13 561.27 C 47.14 572.93 52.88 584.27 58.25 594.27 C 63.63 604.27 67.56 610.93 74.38 621.27 C 81.2 631.6 90.18 644.77 99.17 656.27 C 108.17 667.77 119.13 680.37 128.35 690.27 C 137.58 700.17 146.33 708.27 154.52 715.66 C 162.72 723.05 168.19 727.65 177.52 734.62 C 186.86 741.6 199.69 750.67 210.52 757.5 C 221.36 764.32 231.02 769.87 242.52 775.56 C 254.02 781.24 267.19 787.06 279.52 791.58 C 291.86 796.11 304.19 799.69 316.52 802.7 C 328.86 805.72 343.02 808.17 353.52 809.67 C 364.02 811.17 368.02 811.56 379.52 811.73 C 391.02 811.89 409.69 811.7 422.52 810.67 C 435.36 809.65 445.69 807.77 456.52 805.59 C 467.36 803.41 477.19 800.76 487.52 797.6 C 497.86 794.44 507.86 791.14 518.52 786.64 C 529.19 782.13 539.86 777.27 551.52 770.59 C 563.19 763.9 578.52 753.68 588.52 746.53 C 598.52 739.38 603.31 735.22 611.52 727.68 C 619.74 720.14 628.95 711.34 637.83 701.27 C 646.71 691.2 657.31 677.77 664.83 667.27 C 672.35 656.77 676.62 649.77 682.95 638.27 C 689.28 626.77 697.15 611.1 702.8 598.27 C 708.46 585.43 712.7 573.77 716.87 561.27 C 721.04 548.77 724.64 536.43 727.81 523.27 C 730.98 510.1 733.87 495.77 735.89 482.27 C 737.91 468.77 739.13 455.43 739.94 442.27 C 740.75 429.1 740.91 415.6 740.73 403.27 C 740.55 390.93 740.03 380.1 738.88 368.27 C 737.73 356.43 736.51 346.1 733.84 332.27 C 731.17 318.43 726.88 299.43 722.88 285.27 C 718.88 271.1 714.07 258.27 709.86 247.27 C 705.65 236.27 703.17 230.27 697.64 219.27 C 692.11 208.27 683.84 192.93 676.7 181.27 C 669.56 169.6 663.29 160.27 654.8 149.27 C 646.31 138.27 634.8 124.99 625.76 115.27 C 616.71 105.54 609.06 98.45 600.52 90.9 C 591.99 83.35 583.19 76.28 574.52 69.97 C 565.86 63.65 558.19 58.52 548.52 53.01 C 538.86 47.51 526.19 41.29 516.52 36.95 C 506.86 32.61 501.02 30.34 490.52 27 C 480.02 23.66 465.69 19.61 453.52 16.93 C 441.36 14.24 428.86 12.23 417.52 10.89 C 406.19 9.55 396.52 9.17 385.52 8.9 C 374.52 8.62 362.86 8.74 351.52 9.24 Z M 348.56 78.27 C 358.89 77.58 373.2 77.63 381.52 77.74 C 389.85 77.85 391.36 78.07 398.52 78.95 C 405.69 79.82 415.36 80.99 424.52 82.99 C 433.69 85 444.69 88 453.52 90.99 C 462.36 93.97 469.02 96.75 477.52 100.88 C 486.02 105.02 496.02 110.46 504.52 115.8 C 513.02 121.14 521.69 127.45 528.52 132.92 C 535.36 138.38 539.82 142.86 545.52 148.59 C 551.23 154.31 557.21 160.65 562.77 167.27 C 568.33 173.88 573.05 179.6 578.87 188.27 C 584.7 196.93 592.56 209.93 597.73 219.27 C 602.9 228.6 606.03 235.43 609.91 244.27 C 613.78 253.1 617.48 262.43 620.97 272.27 C 624.46 282.1 627.84 292.43 630.84 303.27 C 633.84 314.1 636.79 326.43 638.98 337.27 C 641.16 348.1 642.66 357.27 643.95 368.27 C 645.24 379.27 646.26 393.27 646.74 403.27 C 647.23 413.27 647.33 417.27 646.85 428.27 C 646.38 439.27 645.22 457.1 643.9 469.27 C 642.58 481.43 640.97 491.27 638.96 501.27 C 636.95 511.27 634.54 520.1 631.84 529.27 C 629.14 538.43 626.39 546.93 622.75 556.27 C 619.1 565.6 614.28 576.43 609.97 585.27 C 605.65 594.1 601.35 601.77 596.85 609.27 C 592.34 616.77 587.9 623.43 582.93 630.27 C 577.95 637.1 572.89 643.69 566.99 650.27 C 561.09 656.85 554.77 663.37 547.52 669.73 C 540.28 676.1 531.86 682.82 523.52 688.46 C 515.19 694.11 506.19 699.25 497.52 703.61 C 488.86 707.96 480.02 711.57 471.52 714.57 C 463.02 717.58 454.69 719.8 446.52 721.65 C 438.36 723.5 431.19 724.72 422.52 725.67 C 413.86 726.62 402.86 727.2 394.52 727.36 C 386.19 727.53 381.19 727.47 372.52 726.67 C 363.86 725.88 352.02 724.44 342.52 722.59 C 333.02 720.75 324.36 718.45 315.52 715.61 C 306.69 712.78 297.86 709.29 289.52 705.61 C 281.19 701.93 273.19 697.86 265.52 693.51 C 257.86 689.16 251.02 684.84 243.52 679.53 C 236.02 674.22 228.6 668.69 220.52 661.65 C 212.45 654.6 202.46 645 195.08 637.27 C 187.7 629.54 181.72 622.1 176.25 615.27 C 170.77 608.43 167.72 604.6 162.22 596.27 C 156.72 587.93 148.58 574.77 143.25 565.27 C 137.91 555.77 134.36 548.6 130.2 539.27 C 126.04 529.93 121.97 520.1 118.29 509.27 C 114.61 498.43 110.82 485.93 108.11 474.27 C 105.41 462.6 103.55 451.27 102.06 439.27 C 100.56 427.27 99.63 413.6 99.14 402.27 C 98.65 390.93 98.77 381.77 99.11 371.27 C 99.44 360.77 100.15 349.27 101.16 339.27 C 102.17 329.27 103.47 320.43 105.15 311.27 C 106.84 302.1 108.27 294.77 111.27 284.27 C 114.28 273.77 119.05 258.93 123.18 248.27 C 127.3 237.6 130.87 229.93 136.03 220.27 C 141.19 210.6 148.58 198.6 154.14 190.27 C 159.7 181.93 163.18 177.49 169.41 170.27 C 175.64 163.04 184.67 153.5 191.52 146.92 C 198.38 140.35 202.86 136.49 210.52 130.82 C 218.19 125.16 228.02 118.42 237.52 112.93 C 247.02 107.45 258.02 102.09 267.52 97.93 C 277.02 93.78 285.86 90.68 294.52 88 C 303.19 85.32 310.52 83.48 319.52 81.86 C 328.53 80.24 338.22 78.95 348.56 78.27 Z M 560.52 8.26 C 569.62 12.41 578.02 15.67 586.52 20.11 C 595.02 24.55 604.02 30.07 611.52 34.88 C 619.02 39.7 624.36 43.51 631.52 49 C 638.69 54.5 646.83 60.97 654.52 67.84 C 662.22 74.72 670.17 82.36 677.69 90.27 C 685.21 98.17 692.77 106.77 699.64 115.27 C 706.51 123.77 713.38 133.27 718.92 141.27 C 724.46 149.27 728.21 155.43 732.88 163.27 C 737.55 171.1 742.14 178.93 746.94 188.27 C 751.75 197.6 757.05 208.43 761.71 219.27 C 766.37 230.1 771.38 243.27 774.91 253.27 C 778.44 263.27 780.56 270.93 782.89 279.27 C 785.22 287.6 786.87 293.77 788.88 303.27 C 790.88 312.77 793.25 324.43 794.92 336.27 C 796.59 348.1 798.09 363.1 798.91 374.27 C 799.72 385.43 799.82 393.27 799.81 403.27 C 799.81 413.27 799.7 422.43 798.88 434.27 C 798.07 446.1 796.45 462.43 794.93 474.27 C 793.42 486.1 791.81 495.1 789.81 505.27 C 787.81 515.43 785.75 524.77 782.93 535.27 C 780.1 545.77 776.72 557.27 772.86 568.27 C 769.01 579.27 764.45 590.6 759.78 601.27 C 755.11 611.93 749.51 623.27 744.85 632.27 C 740.2 641.27 737.51 646.1 731.85 655.27 C 726.18 664.43 717.84 677.43 710.84 687.27 C 703.84 697.1 695.86 706.93 689.85 714.27 C 683.83 721.6 681.15 724.69 674.76 731.27 C 668.38 737.84 658.4 747.52 651.52 753.73 C 644.65 759.93 640.69 763.19 633.52 768.5 C 626.36 773.82 615.69 781.13 608.52 785.63 C 601.36 790.13 598.82 791.56 590.52 795.5 C 582.23 799.44 569.86 804.45 558.73 809.27 C 559.36 809.4 554.23 810.25 560.52 809.66 C 566.82 809.06 585.86 807.39 596.52 805.7 C 607.19 804.01 614.36 802.37 624.52 799.52 C 634.69 796.67 646.86 792.75 657.52 788.6 C 668.19 784.44 678.36 779.94 688.52 774.61 C 698.69 769.28 708.69 763.27 718.52 756.6 C 728.36 749.93 738.5 742.13 747.52 734.57 C 756.55 727.01 764.46 719.65 772.68 711.27 C 780.9 702.88 789.62 693.1 796.83 684.27 C 804.04 675.43 809.79 667.43 815.94 658.27 C 822.08 649.1 827.9 639.93 833.71 629.27 C 839.52 618.6 845.6 606.6 850.8 594.27 C 856 581.93 861.05 567.43 864.91 555.27 C 868.76 543.1 871.24 533.43 873.91 521.27 C 876.57 509.1 879.22 493.27 880.9 482.27 C 882.57 471.27 883.13 467.27 883.94 455.27 C 884.74 443.27 885.75 424.6 885.75 410.27 C 885.74 395.93 885.05 382.6 883.9 369.27 C 882.75 355.93 881.03 342.93 878.86 330.27 C 876.7 317.6 874.25 306.1 870.91 293.27 C 867.57 280.43 862.85 264.93 858.83 253.27 C 854.82 241.6 851.82 234.27 846.84 223.27 C 841.85 212.27 834.75 197.93 828.9 187.27 C 823.06 176.6 818.28 168.93 811.77 159.27 C 805.25 149.6 796.75 137.93 789.8 129.27 C 782.86 120.6 778.49 115.65 770.11 107.27 C 761.73 98.88 748.96 86.85 739.52 78.95 C 730.09 71.06 722.02 65.59 713.52 59.91 C 705.02 54.23 698.36 50.06 688.52 44.89 C 678.69 39.72 665.02 33.2 654.52 28.87 C 644.02 24.54 635.19 21.72 625.52 18.9 C 615.86 16.08 606.36 13.79 596.52 11.97 C 586.69 10.15 572.52 8.62 566.52 8 C 560.52 7.38 562.62 8.17 560.52 8.26 Z M 408.52 101.22 C 400.69 101.74 387.86 102.7 378.52 103.99 C 369.19 105.29 362.19 106.51 352.52 109.02 C 342.86 111.52 330.19 115.38 320.52 119.02 C 310.86 122.66 303.19 126.18 294.52 130.84 C 285.86 135.5 276.36 141.47 268.52 146.99 C 260.69 152.51 253.58 158.58 247.52 163.96 C 241.47 169.34 237.27 173.72 232.21 179.27 C 227.16 184.82 222.05 190.77 217.21 197.27 C 212.36 203.77 207.8 210.27 203.13 218.27 C 198.47 226.27 193.2 236.43 189.2 245.27 C 185.2 254.1 181.97 262.93 179.15 271.27 C 176.33 279.6 174.43 285.93 172.27 295.27 C 170.11 304.6 167.67 317.27 166.16 327.27 C 164.65 337.27 163.9 345.6 163.22 355.27 C 162.54 364.93 162.07 374.27 162.06 385.27 C 162.05 396.27 162.29 409.6 163.15 421.27 C 164.01 432.93 165.38 444.1 167.2 455.27 C 169.03 466.43 171.76 478.77 174.1 488.27 C 176.43 497.77 178.34 503.93 181.19 512.27 C 184.05 520.6 187.38 529.43 191.22 538.27 C 195.06 547.1 199.24 556.1 204.22 565.27 C 209.2 574.43 215.27 584.6 221.11 593.27 C 226.94 601.93 233.21 609.93 239.23 617.27 C 245.26 624.6 250.54 630.57 257.25 637.27 C 263.97 643.97 272.15 651.4 279.52 657.46 C 286.9 663.51 294.19 668.76 301.52 673.61 C 308.86 678.47 315.52 682.42 323.52 686.58 C 331.52 690.73 341.69 695.38 349.52 698.56 C 357.36 701.74 361.86 703.31 370.52 705.64 C 379.19 707.98 393.19 711.06 401.52 712.56 C 409.86 714.07 411.86 714.32 420.52 714.68 C 429.19 715.03 447.82 714.76 453.52 714.7 C 459.23 714.63 454.31 714.42 454.73 714.27 C 454.31 713.82 457.56 714.79 453.52 713 C 449.49 711.21 437.36 706.81 430.52 703.55 C 423.69 700.28 420.69 698.93 412.52 693.42 C 404.36 687.92 391.44 679.04 381.52 670.51 C 371.61 661.98 362.93 653.64 353.04 642.27 C 343.16 630.89 331.22 615.6 322.22 602.27 C 313.22 588.93 304.24 571.77 299.06 562.27 C 293.87 552.77 294.12 552.43 291.12 545.27 C 288.12 538.1 284.03 527.77 281.05 519.27 C 278.07 510.77 275.56 502.77 273.23 494.27 C 270.91 485.77 268.96 477.77 267.11 468.27 C 265.27 458.77 263.32 446.1 262.16 437.27 C 261 428.43 260.5 427.77 260.16 415.27 C 259.82 402.77 259.45 377.43 260.12 362.27 C 260.78 347.1 261.83 337.93 264.16 324.27 C 266.5 310.6 270.98 292.1 274.14 280.27 C 277.31 268.43 280.16 261.27 283.15 253.27 C 286.14 245.27 288.43 239.77 292.09 232.27 C 295.76 224.77 300.32 216.1 305.15 208.27 C 309.98 200.43 315.52 192.44 321.08 185.27 C 326.64 178.1 332.62 171.3 338.52 165.26 C 344.43 159.21 350.86 153.69 356.52 148.99 C 362.19 144.29 365.86 141.4 372.52 137.04 C 379.19 132.68 388.52 127 396.52 122.82 C 404.52 118.63 411.89 115.19 420.52 111.93 C 429.16 108.67 438.59 106.3 448.32 103.27 C 440.34 102.45 432.16 101.26 425.52 100.92 C 418.89 100.58 416.36 100.71 408.52 101.22 Z"/>
</svg>
